<?xml version="1.0" encoding="UTF-8"?>
<svg width="650px" height="99px" viewBox="0 0 650 99" version="1.1" xmlns="http://www.w3.org/2000/svg" xmlns:xlink="http://www.w3.org/1999/xlink">
    <!-- Generator: Sketch 51.2 (57519) - http://www.bohemiancoding.com/sketch -->
    <title>Academic Work Illustration</title>
    <desc>Created with Sketch.</desc>
    <defs></defs>
    <g id="Academic-Work-Illustration" stroke="none" stroke-width="1" fill="none" fill-rule="evenodd">
        <g id="Group" transform="translate(34.000000, 19.000000)" fill-rule="nonzero">
            <circle id="Oval" fill="#EC1C24" cx="17.5" cy="30.5" r="17.5"></circle>
            <circle id="Oval-Copy" fill="#F1592A" cx="67.5" cy="30.5" r="17.5"></circle>
            <circle id="Oval-Copy-2" fill="#F56423" cx="116.5" cy="30.5" r="17.5"></circle>
            <circle id="Oval-Copy-3" fill="#F8931F" cx="166.5" cy="30.5" r="17.5"></circle>
            <circle id="Oval-Copy-4" fill="#FBEE0C" cx="216.5" cy="30.5" r="17.5"></circle>
            <circle id="Oval-Copy-5" fill="#8DC540" cx="266.5" cy="30.5" r="17.5"></circle>
            <circle id="Oval-Copy-6" fill="#23B34C" cx="315.5" cy="30.5" r="17.5"></circle>
            <circle id="Oval-Copy-7" fill="#09B2CF" cx="365.5" cy="30.5" r="17.5"></circle>
            <circle id="Oval-Copy-8" fill="#2E3094" cx="415.5" cy="30.5" r="17.5"></circle>
            <circle id="Oval-Copy-9" fill="#282166" cx="465.5" cy="30.5" r="17.5"></circle>
            <circle id="Oval-Copy-10" fill="#652D92" cx="514.5" cy="30.5" r="17.5"></circle>
            <circle id="Oval-Copy-11" fill="#92278F" cx="564.5" cy="30.5" r="17.5"></circle>
            <rect id="Rectangle" stroke="#9B9B9B" stroke-width="2" x="19" y="1" width="193" height="59"></rect>
            <rect id="Rectangle-Copy" stroke="#9B9B9B" stroke-width="2" x="266" y="1" width="199" height="59"></rect>
            <rect id="Rectangle-Copy-2" stroke="#9B9B9B" stroke-width="2" x="514" y="1" width="50" height="59"></rect>
        </g>
        <rect id="Rectangle-2" fill-opacity="0.518548" fill="#FFFFFF" fill-rule="nonzero" style="mix-blend-mode: overlay;" transform="translate(324.500000, 28.627775) rotate(1.000000) translate(-324.500000, -28.627775) " x="18" y="7" width="613" height="43.25555"></rect>
    </g>
</svg>